ffmpeg version 2.8.14-0ubuntu0.16.04.1 Copyright (c) 2000-2018 the FFmpeg developers
  built with gcc 5.4.0 (Ubuntu 5.4.0-6ubuntu1~16.04.9) 20160609
  configuration: --prefix=/usr --extra-version=0ubuntu0.16.04.1 --build-suffix=-ffmpeg --toolchain=hardened --libdir=/usr/lib/x86_64-linux-gnu --incdir=/usr/include/x86_64-linux-gnu --cc=cc --cxx=g++ --enable-gpl --enable-shared --disable-stripping --disable-decoder=libopenjpeg --disable-decoder=libschroedinger --enable-avresample --enable-avisynth --enable-gnutls --enable-ladspa --enable-libass --enable-libbluray --enable-libbs2b --enable-libcaca --enable-libcdio --enable-libflite --enable-libfontconfig --enable-libfreetype --enable-libfribidi --enable-libgme --enable-libgsm --enable-libmodplug --enable-libmp3lame --enable-libopenjpeg --enable-libopus --enable-libpulse --enable-librtmp --enable-libschroedinger --enable-libshine --enable-libsnappy --enable-libsoxr --enable-libspeex --enable-libssh --enable-libtheora --enable-libtwolame --enable-libvorbis --enable-libvpx --enable-libwavpack --enable-libwebp --enable-libx265 --enable-libxvid --enable-libzvbi --enable-openal --enable-opengl --enable-x11grab --enable-libdc1394 --enable-libiec61883 --enable-libzmq --enable-frei0r --enable-libx264 --enable-libopencv
  libavutil      54. 31.100 / 54. 31.100
  libavcodec     56. 60.100 / 56. 60.100
  libavformat    56. 40.101 / 56. 40.101
  libavdevice    56.  4.100 / 56.  4.100
  libavfilter     5. 40.101 /  5. 40.101
  libavresample   2.  1.  0 /  2.  1.  0
  libswscale      3.  1.101 /  3.  1.101
  libswresample   1.  2.101 /  1.  2.101
  libpostproc    53.  3.100 / 53.  3.100
Input #0, mov,mp4,m4a,3gp,3g2,mj2, from '/home/teama/web/cmeshine.dev2.obtech.inet/public_html/uploads/posts/JUL2018/15325238571-post-video.mp4':
  Metadata:
    major_brand     : qt  
    minor_version   : 0
    compatible_brands: qt  
    creation_time   : 2018-07-13 11:26:35
  Duration: 00:00:38.06, start: 0.000000, bitrate: 17080 kb/s
    Stream #0:0(und): Video: h264 (High) (avc1 / 0x31637661), yuv420p(tv, bt709), 1920x1080, 17008 kb/s, 29.98 fps, 29.97 tbr, 600 tbn, 1200 tbc (default)
    Metadata:
      rotate          : 90
      creation_time   : 2018-07-13 11:26:35
      handler_name    : Core Media Data Handler
      encoder         : H.264
    Side data:
      displaymatrix: rotation of -90.00 degrees
    Stream #0:1(und): Audio: aac (LC) (mp4a / 0x6134706D), 44100 Hz, mono, fltp, 62 kb/s (default)
    Metadata:
      creation_time   : 2018-07-13 11:26:35
      handler_name    : Core Media Data Handler
    Stream #0:2(und): Data: none (mebx / 0x7862656D), 0 kb/s (default)
    Metadata:
      creation_time   : 2018-07-13 11:26:35
      handler_name    : Core Media Data Handler
    Stream #0:3(und): Data: none (mebx / 0x7862656D), 0 kb/s (default)
    Metadata:
      creation_time   : 2018-07-13 11:26:35
      handler_name    : Core Media Data Handler
[NULL @ 0x1ef2080] Unable to find a suitable output format for 'pipe:'
pipe:: Invalid argument
